<svg xmlns="http://www.w3.org/2000/svg" width="1000" height="444"><g transform="translate(-.1859116 -.6282128)"><svg xmlns="http://www.w3.org/2000/svg" xmlns:xlink="http://www.w3.org/1999/xlink" width="1000" height="444" data-background-color="#ffffff" viewBox="0 0 317 141"><g transform="translate(.058934 .1995)"><svg width="316.8821321" height="140.60052" viewBox="0 0 316.8821321 140.60052"><g><svg width="316.8821321" height="140.60052" viewBox="0 0 316.8821321 140.60052"><g><svg width="316.8821321" height="140.60052" viewBox="0 0 316.8821321 140.60052"><g><path fill="#000" d="M0 140.601V0h316.882v140.601z" data-fill-palette-color="tertiary"/><path fill="#fff" d="M3.283 137.317V3.283h310.316v134.034z" data-fill-palette-color="quaternary"/><path fill="#000" d="M9.85 130.751V9.85h297.182v120.901z" data-fill-palette-color="tertiary"/></g><g transform="translate(19.69974 19.69974)"><svg width="277.4826521" height="101.20104" viewBox="0 0 277.4826521 101.20104"><g><svg width="277.4826521" height="101.20104" viewBox="0 0 277.4826521 101.20104"><g><svg width="277.4826521" height="101.20104" data-palette-color="#ffffff" viewBox="3.3 -35.75 109.9399948 40.0999985"><path fill="#fff" d="M7.6 4.35q-2.3-.2-2.85-1.25Q4.2 2.05 4.2.4q0-1.8.75-4.43.75-2.62 1.88-5.72 1.12-3.1 2.27-6.2-.6.05-1.27.12-.68.08-1.68.2-1 .13-2.6.38.1-1.3.98-2.03.87-.72 2.32-1.07 1.45-.35 3.25-.4 1.4-3.85 2.88-7.53 1.47-3.67 2.92-6.72-.5-.05-.97-.08-.48-.02-.98-.02-3.2 0-4.95.65t-2.4 2Q5.95-29.1 5.95-27q0 1.1.15 2.02.15.93.5 1.93-1.7-.3-2.5-1.33-.8-1.02-.8-2.57 0-2.6 1.85-4.58 1.85-1.97 4.98-3.1 3.12-1.12 6.92-1.12 2.65 0 5.13.37Q24.65-35 27-35q1.05 0 1.93-.13.87-.12 1.77-.37-1.85 2.1-3.1 2.8-1.25.7-2.55.7-1.15 0-2.97-.33-1.83-.32-4.13-.52-.65 1.65-1.45 3.97-.8 2.33-1.65 4.95-.85 2.63-1.7 5.23 2.5.15 4.73.45 2.22.3 4.02.35-.4.6-.92.92-.53.33-1.48.48-.95.15-2.62.22-1.68.08-4.48.13-.3 1.05-.75 2.5t-.8 2.75Q10.5-9.6 10.3-9 9.2-5.15 8.43-1.8q-.78 3.35-.83 6.15Zm16.8-2q-1.55 0-2.63-1.02Q20.7.3 20.7-1.8q0-1.8.8-3.88.8-2.07 2.2-4.1 1.4-2.02 3.17-3.7 1.78-1.67 3.75-2.67 1.98-1 3.93-1 1.95 0 3.25 1.02 1.3 1.03 1.3 2.73 0 1.25-.68 1.7-.67.45-1.77.45.1-.4.17-.88.08-.47.08-.87 0-1.15-.55-1.98-.55-.82-1.9-.82-1.4 0-2.85.97-1.45.98-2.8 2.6-1.35 1.63-2.4 3.53-1.05 1.9-1.65 3.75-.6 1.85-.6 3.3Q24.15.3 25.5.3 26.65.3 28-.78q1.35-1.07 2.77-2.75Q32.2-5.2 33.5-7q1.3-1.8 2.3-3.3.2-.3.25-.3.3.05.77.2.48.15.83.4t.35.65q0 .45-.45 1.22-.45.78-1 1.78t-1 2.02Q35.1-3.3 35.1-2.4q0 .75.4 1.47.4.73 1.3.73 1.35 0 3.55-1.98 2.2-1.97 4.45-5.92l.5.5q-1.05 2.7-2.7 4.75Q40.95-.8 39.07.35 37.2 1.5 35.4 1.5q-1.85 0-2.73-1.1Q31.8-.7 31.8-2q0-.3.05-.68.05-.37.1-.77Q29.8-.55 28.02.9q-1.77 1.45-3.62 1.45Zm24.05 1.3q-2.61 0-3.88-1.7t-1.27-4.6q0-2.5.85-5.9.85-3.4 2.25-7.13 1.4-3.72 3.12-7.27 1.73-3.55 3.48-6.43 1.75-2.87 3.3-4.6 1.54-1.72 2.54-1.72.86 0 1.23 1.05.38 1.05.38 2.1 0 1.4-.61 3.4-.59 2-1.69 4.27-1.1 2.28-2.56 4.48-1.44 2.2-3.12 4.02-1.67 1.83-3.42 2.88-.3.55-.88 2.27-.58 1.73-1.05 3.95-.47 2.23-.47 4.33 0 2.05.62 3.38.63 1.32 2.13 1.32 1.44 0 3-1.17 1.55-1.18 2.5-3.03-1.85-.95-2.75-2.78-.9-1.82-.9-3.67 0-2.4 1.25-3.85 1.25-1.45 2.95-1.45 1.45 0 2.3 1.17.84 1.18.84 3.43 0 1.65-.44 3.4-.45 1.75-1.31 3.4.31.05.63.1.33.05.68.05 1.8 0 3-.88 1.19-.87 2.02-2.15.83-1.27 1.38-2.42l.6.65Q63.75-4 61.82-2.88 59.9-1.75 58-1.75q-.41 0-.8-.05l-.8-.1Q55.05.4 53.07 2.02q-1.98 1.63-4.62 1.63Zm6.95-7.1q.55-1.15.85-2.43.3-1.27.3-2.62 0-1.75-.48-2.75t-1.17-1q-.75 0-1.33 1.02Q53-10.2 53-8.65q0 1.35.55 2.85.54 1.5 1.85 2.35Zm-5.81-12q1.41-1.1 2.73-2.8 1.33-1.7 2.48-3.63 1.15-1.92 2.04-3.77.91-1.85 1.41-3.35.5-1.5.5-2.25 0-.25-.05-.33-.05-.07-.15-.07-.4 0-1.53 1.42-1.12 1.43-2.5 3.8-1.37 2.38-2.72 5.25-1.35 2.88-2.21 5.73ZM68.89 2.2q-3.05 0-4.57-1.67-1.53-1.68-1.53-4.13 0-2.25 1.13-4.75 1.12-2.5 3-4.7 1.87-2.2 4.12-3.58Q73.29-18 75.49-18q1.15 0 2.13.6.97.6.97 2.45 0 1.9-1.12 3.57-1.13 1.68-2.95 2.98-1.83 1.3-4 2.12-2.18.83-4.33 1.03-.1.5-.15.95-.05.45-.05.85 0 .75.18 1.5.17.75.62 1.37.45.63 1.23.98.77.35 1.92.35 2.15 0 4.25-1.23 2.1-1.22 3.9-3.22 1.8-2 3.05-4.4l.6.45q-1.35 3-3.42 5.2-2.08 2.2-4.5 3.43-2.43 1.22-4.93 1.22Zm-2.45-8.4q1.35-.45 3.05-1.33 1.7-.87 3.28-2.07 1.57-1.2 2.6-2.65 1.02-1.45 1.02-3.05 0-.55-.2-.85-.2-.3-.85-.3-1.2 0-2.55.92-1.35.93-2.6 2.43t-2.25 3.3q-1 1.8-1.5 3.6Zm18.95 8.75q-2.35 0-3.72-1.02Q80.29.5 79.72-1q-.58-1.5-.58-3t.4-2.3q.4-.8.98-1.2.57-.4 1.1-.6.52-.2.72-.4 1.5-1.65 2.75-3.45 1.25-1.8 2.2-3.8v-.6q0-1.85.63-2.63.62-.77 1.32-.77.4 0 .6.2.2.2.2.45t-.15.8q-.15.55-.15 1.4 0 1.65.65 3.57.65 1.93 1.3 4.05.65 2.13.65 4.43 0 .65-.07 1.27-.08.63-.23 1.18 1.75-.3 3.3-1.58 1.55-1.27 3-4.07l.45.5q-.95 2.75-2.85 4.17-1.9 1.43-4.15 1.78-.8 2.15-2.52 3.15-1.73 1-3.88 1Zm.1-1.75q.6 0 1.6-.4t1.55-2.05q-2.1-.4-3.72-1.65-1.63-1.25-2.43-2.5-1.1.05-1.1 1.75 0 1.8 1.08 3.32Q83.54.8 85.49.8Zm3.4-3.25q.1-.5.15-1.05.05-.55.05-1.3 0-2.35-.57-4.67-.58-2.33-.98-4.38-1.15 1.9-2.42 3.62-1.28 1.73-2.43 2.88.75 1.6 2.33 3 1.57 1.4 3.87 1.9Zm12.75 4.75q-2.15 0-3.3-1.25t-1.15-3.7q0-2.2.82-5.43.83-3.22 2.08-6.62-.5-.1-.95-.18-.45-.07-.85-.22v-.9q.4.05.95.1.55.05 1.25.1 1.05-2.7 2.25-5.23 1.2-2.52 2.37-4.5 1.18-1.97 2.25-3.15 1.08-1.17 1.83-1.17.4 0 .72.27.33.28.33.83 0 .85-1.05 2.77-1.05 1.93-2.6 4.58-1.55 2.65-3 5.75h1.85q1.65 0 3.47-.05 1.83-.05 3.68-.25v.9q-2.75.3-4.93.45-2.17.15-3.87.15h-.75q-1.15 2.65-1.95 5.45-.8 2.8-.8 5.45 0 2.15.65 3.07.65.93 2.15.93 2.6 0 5.1-2.3 2.5-2.3 4.4-6.25l.65.5q-1.2 2.8-3.03 5.05Q108.39-.3 106.19 1q-2.2 1.3-4.55 1.3Z" class="undefined-text-0" data-fill-palette-color="quaternary"/></svg></g></svg></g></svg></g></svg></g></svg></g></svg></g></svg></g></svg>