<svg xmlns="http://www.w3.org/2000/svg" version="1.1" xmlns:xlink="http://www.w3.org/1999/xlink" xmlns:svgjs="http://svgjs.dev/svgjs" width="1000" height="623" viewBox="0 0 1000 623"><g transform="matrix(1,0,0,1,-0.6060606060606233,0.2522267206477409)"><svg viewBox="0 0 396 247" data-background-color="#ffffff" preserveAspectRatio="xMidYMid meet" height="623" width="1000" xmlns="http://www.w3.org/2000/svg" xmlns:xlink="http://www.w3.org/1999/xlink"><defs></defs><g id="tight-bounds" transform="matrix(1,0,0,1,0.2400000000000091,-0.09999999999999432)"><svg viewBox="0 0 395.52 247.2" height="247.2" width="395.52"><g><svg></svg></g><g><svg viewBox="0 0 395.52 247.2" height="247.2" width="395.52"><g transform="matrix(1,0,0,1,75.54432000000001,82.14077868886577)"><svg viewBox="0 0 244.43135999999996 82.91844262226846" height="82.91844262226846" width="244.43135999999996"><g><svg viewBox="0 0 244.43135999999996 82.91844262226846" height="82.91844262226846" width="244.43135999999996"><g><svg viewBox="0 0 244.43136 82.91844262226847" height="82.91844262226846" width="244.43135999999996"><g><svg viewBox="0 0 244.43136 82.91844262226847" height="82.91844262226847" width="244.43136"><g><svg viewBox="0 0 244.43136 82.91844262226847" height="82.91844262226847" width="244.43136"><g><svg viewBox="0 0 244.43136 82.91844262226847" height="82.91844262226847" width="244.43136"><g transform="matrix(1,0,0,1,0,0)"><svg width="244.43136" viewBox="4.4 -51.25 240.23 81.5" height="82.91844262226847" data-palette-color="#fff"><path d="M41.65-40.25Q42.85-40.25 44-39.58 45.15-38.9 45.5-38.4L45.5-38.4Q41.35-38.4 38.83-34.43 36.3-30.45 34.8-23.93 33.3-17.4 31.15-4.6L31.15-4.6 30.35 0.1Q29.4 0.4 28.15 0.4L28.15 0.4 25.85-4.7Q21.4-14.55 19.03-19.63 16.65-24.7 14.1-29.6L14.1-29.6 12.8-24.65Q10.55-16.25 9.45-10.73 8.35-5.2 8.35 0.75L8.35 0.75 8.1 0.75Q6.75 0.75 6.1 0.1 5.45-0.55 5.45-2.4L5.45-2.4Q5.45-4.55 6.23-7.98 7-11.4 8.65-17.5L8.65-17.5Q10.05-22.8 10.73-25.7 11.4-28.6 11.4-30.25L11.4-30.25Q11.4-31.2 11-31.58 10.6-31.95 9.4-31.95L9.4-31.95Q8.95-31.95 7.55-31.85L7.55-31.85 5.8-31.8Q5.15-31.8 4.78-32.02 4.4-32.25 4.4-33L4.4-33Q4.4-33.5 4.65-34.35L4.65-34.35Q6-33.85 8.6-33.85L8.6-33.85Q10.35-33.85 11.38-34.05 12.4-34.25 13.75-34.7L13.75-34.7Q14.25-34.7 14.65-33.9L14.65-33.9Q18-27.2 26.2-9.85L26.2-9.85 28.8-4.35Q31.25-20.85 34.27-30.55 37.3-40.25 41.65-40.25L41.65-40.25ZM69.55-17.65Q70.05-17.5 70.05-16.65L70.05-16.65Q70.05-15.4 69.05-14.08 68.05-12.75 66.32-11.9 64.6-11.05 62.55-11.05L62.55-11.05Q59.8-11.05 57.7-12.55L57.7-12.55Q57.4-11.1 56.95-9.6L56.95-9.6Q56.8-9.05 56.3-7.08 55.8-5.1 55.6-3.55L55.6-3.55Q55.25-2.75 54.2-1.83 53.15-0.9 51.7-0.25 50.25 0.4 48.85 0.4L48.85 0.4Q47.3 0.4 45.85-0.4 44.4-1.2 43.47-2.55 42.55-3.9 42.55-5.55L42.55-5.55Q43.25-7.65 43.7-9.5 44.15-11.35 44.55-13.25L44.55-13.25 45.05-15.75Q45.3-16.9 46.4-18.03 47.5-19.15 49.07-19.88 50.65-20.6 52.25-20.6L52.25-20.6Q52.85-20.6 53.95-20.4L53.95-20.4Q54.1-21.55 54.47-22 54.85-22.45 55.7-22.45L55.7-22.45Q56.2-22.45 56.85-22.3L56.85-22.3Q56.6-20.9 56.6-19.9L56.6-19.9Q56.6-17 58.35-15 60.1-13 63.1-13L63.1-13Q65.35-13 66.97-14.2 68.6-15.4 69.55-17.65L69.55-17.65ZM53.4-4.4Q53.8-6.4 54.55-8.95L54.55-8.95Q55.55-12.3 55.85-14.35L55.85-14.35Q54.75-15.75 54.35-17.75L54.35-17.75Q54.35-17.95 54.27-18.07 54.2-18.2 53.95-18.25L53.95-18.25Q53.2-18.55 52.25-18.55L52.25-18.55Q50.4-18.55 49.05-17.55 47.7-16.55 47.35-15.15L47.35-15.15Q47.2-14.55 46.25-10.45L46.25-10.45Q45.8-8.05 45.15-5.7L45.15-5.7Q45.15-3.85 46.4-2.83 47.65-1.8 49.05-1.8L49.05-1.8Q50.25-1.8 51.62-2.65 53-3.5 53.4-4.4L53.4-4.4ZM85.34-8.3Q85.59-7.95 85.59-7.45L85.59-7.45Q85.59-7.05 85.45-6.75 85.3-6.45 84.95-6L84.95-6Q83.65-4.45 81.32-2.93 79-1.4 76.45-0.45 73.9 0.5 72 0.5L72 0.5Q69.84 0.5 68.42-0.83 67-2.15 67-4.8L67-4.8Q67-8.15 69.4-17.4L69.4-17.4 64.09-17.2Q64-17.25 63.82-17.38 63.65-17.5 63.6-17.6L63.6-17.6Q63.75-17.85 64.15-18.6 64.55-19.35 64.84-19.65L64.84-19.65 70-19.6Q71.65-25.7 73.8-32.15L73.8-32.15Q74.7-32.85 76.09-33.68 77.5-34.5 77.8-34.5L77.8-34.5Q78.25-34.3 78.34-33.95L78.34-33.95Q77.45-33.6 76.95-33.02 76.45-32.45 75.95-31.15L75.95-31.15Q74.5-27.45 72.45-19.6L72.45-19.6 85.2-19.55 85.25-18.75Q85.25-18.35 85.09-18.2 84.95-18.05 84.4-18L84.4-18Q83.7-17.95 71.9-17.5L71.9-17.5Q69.59-8.1 69.59-4.95L69.59-4.95Q69.59-3.2 70.45-2.38 71.3-1.55 73.05-1.55L73.05-1.55Q78.15-1.55 85.34-8.3L85.34-8.3ZM132.49-5.45Q132.69-4.95 132.69-4.5L132.69-4.5Q132.69-3.35 131.64-2.23 130.59-1.1 129.12-0.4 127.64 0.3 126.49 0.3L126.49 0.3Q123.89 0.3 122.72-2.88 121.54-6.05 120.89-10.6L120.89-10.6Q120.74-11.65 120.34-11.98 119.94-12.3 118.89-12.3L118.89-12.3 111.99-12.25Q110.49-12.25 108.29-12.35L108.29-12.35 107.69-11.4Q105.09-7.2 103.37-4.88 101.64-2.55 99.49-1 97.34 0.55 94.69 0.55L94.69 0.55Q92.84 0.55 91.67-0.15 90.49-0.85 89.94-1.85 89.39-2.85 89.39-3.75L89.39-3.75Q89.39-4.7 89.89-5.48 90.39-6.25 91.04-6.6L91.04-6.6Q91.04-4.45 92.07-3.13 93.09-1.8 95.04-1.8L95.04-1.8Q97.74-1.8 100.19-4.42 102.64-7.05 106.04-12.55L106.04-12.55Q103.39-12.85 103.24-13.55L103.24-13.55Q103.14-13.8 103.37-14.4 103.59-15 103.89-15.3L103.89-15.3Q104.64-15 107.34-14.65L107.34-14.65Q107.94-15.7 108.94-17.3L108.94-17.3Q117.54-31.55 120.04-35.5L120.04-35.5Q120.59-36.4 121.09-36.7 121.59-37 122.19-37L122.19-37Q122.99-37 123.84-36.75L123.84-36.75Q122.79-34.9 122.69-30.5L122.69-30.5 122.64-28.05Q122.64-22.95 123.04-16.7L123.04-16.7Q123.49-9.6 124.42-5.98 125.34-2.35 127.49-2.35L127.49-2.35Q128.54-2.35 129.92-3.23 131.29-4.1 132.49-5.45L132.49-5.45ZM115.39-14.15Q116.74-14.15 120.49-14.3L120.49-14.3Q120.39-18 120.32-22.48 120.24-26.95 120.19-30.25L120.19-30.25 120.19-31.9Q114.44-22.25 109.59-14.4L109.59-14.4Q112.84-14.15 115.39-14.15L115.39-14.15ZM168.69-18.55Q172.44-18.15 174.84-16 177.24-13.85 177.24-10.4L177.24-10.4Q177.24-7.7 175.71-5.13 174.19-2.55 171.06-0.85 167.94 0.85 163.34 0.85L163.34 0.85Q160.09 0.85 157.24 0.03 154.39-0.8 152.84-2L152.84-2Q152.49-1 151.99-0.68 151.49-0.35 150.74-0.35L150.74-0.35Q150.39-0.35 150.11-0.45 149.84-0.55 149.34-0.75L149.34-0.75Q150.44-2.7 150.94-4.8L150.94-4.8Q157.24-30.85 157.24-32.85L157.24-32.85Q157.24-33.15 157.06-33.27 156.89-33.4 156.44-33.4L156.44-33.4Q155.64-33.4 153.24-32.9L153.24-32.9Q150.94-32.4 150.24-32.4L150.24-32.4Q148.74-32.4 148.74-33.8L148.74-33.8Q148.74-34.3 148.81-34.85 148.89-35.4 149.04-35.85L149.04-35.85Q149.49-35.4 150.14-35.3 150.79-35.2 152.74-35.15L152.74-35.15 157.64-35.05Q157.84-35.05 158.24-35.02 158.64-35 159.59-35L159.59-35Q165.39-34.85 168.74-34.45 172.09-34.05 174.34-32.58 176.59-31.1 176.59-28L176.59-28Q176.59-24.9 174.41-22.33 172.24-19.75 168.69-18.55L168.69-18.55ZM162.74-1.2Q166.19-1.2 168.76-2.43 171.34-3.65 172.71-5.73 174.09-7.8 174.09-10.3L174.09-10.3Q174.09-13.45 171.89-15.25 169.69-17.05 165.84-17.05L165.84-17.05Q162.54-17.05 160.94-16.85L160.94-16.85Q160.39-16.95 160.34-18.05L160.34-18.05 160.34-18.4Q160.34-19.25 160.69-19.55L160.69-19.55Q161.04-19.55 162.19-19.45 163.34-19.35 164.24-19.35L164.24-19.35Q168.24-19.35 170.86-21.45 173.49-23.55 173.49-27.1L173.49-27.1Q173.49-30.5 170.84-31.98 168.19-33.45 163.34-33.45L163.34-33.45Q161.64-33.45 160.89-33.13 160.14-32.8 159.69-31.83 159.24-30.85 158.54-28.2L158.54-28.2Q155.99-18.65 153.34-4.4L153.34-4.4Q157.34-1.2 162.74-1.2L162.74-1.2ZM205.13-14Q205.63-14 205.93-13.53 206.23-13.05 206.23-12.35L206.23-12.35Q206.23-11.45 205.73-10.45L205.73-10.45Q204.33-7.5 201.73-5.03 199.13-2.55 196.11-1.1 193.08 0.35 190.48 0.35L190.48 0.35Q185.18 0.35 185.18-5.8L185.18-5.8Q185.18-10.1 187.53-19.63 189.88-29.15 194.33-44.9L194.33-44.9Q195.28-48.15 196.41-49.7 197.53-51.25 198.98-51.25L198.98-51.25Q200.03-51.25 201.01-50.53 201.98-49.8 202.63-48.3 203.28-46.8 203.28-44.6L203.28-44.6Q203.28-41.05 201.61-35.6 199.93-30.15 196.58-24.1 193.23-18.05 188.53-12.9L188.53-12.9Q187.68-8.5 187.68-6.35L187.68-6.35Q187.68-3.95 188.66-2.93 189.63-1.9 191.38-1.9L191.38-1.9Q193.83-1.9 196.61-3.55 199.38-5.2 201.68-8 203.98-10.8 205.13-14L205.13-14ZM195.63-41.75Q191.43-26.65 189.28-16.7L189.28-16.7Q192.98-21.35 195.66-26.85 198.33-32.35 199.66-37.15 200.98-41.95 200.98-44.7L200.98-44.7Q200.98-46.25 200.53-47.38 200.08-48.5 199.03-48.5L199.03-48.5Q198.43-48.5 197.61-47.25 196.78-46 195.63-41.75L195.63-41.75ZM230.03-17.65Q230.53-17.5 230.53-16.65L230.53-16.65Q230.53-15.4 229.53-14.08 228.53-12.75 226.81-11.9 225.08-11.05 223.03-11.05L223.03-11.05Q220.28-11.05 218.18-12.55L218.18-12.55Q217.88-11.1 217.43-9.6L217.43-9.6Q217.28-9.05 216.78-7.08 216.28-5.1 216.08-3.55L216.08-3.55Q215.73-2.75 214.68-1.83 213.63-0.9 212.18-0.25 210.73 0.4 209.33 0.4L209.33 0.4Q207.78 0.4 206.33-0.4 204.88-1.2 203.96-2.55 203.03-3.9 203.03-5.55L203.03-5.55Q203.73-7.65 204.18-9.5 204.63-11.35 205.03-13.25L205.03-13.25 205.53-15.75Q205.78-16.9 206.88-18.03 207.98-19.15 209.56-19.88 211.13-20.6 212.73-20.6L212.73-20.6Q213.33-20.6 214.43-20.4L214.43-20.4Q214.58-21.55 214.96-22 215.33-22.45 216.18-22.45L216.18-22.45Q216.68-22.45 217.33-22.3L217.33-22.3Q217.08-20.9 217.08-19.9L217.08-19.9Q217.08-17 218.83-15 220.58-13 223.58-13L223.58-13Q225.83-13 227.46-14.2 229.08-15.4 230.03-17.65L230.03-17.65ZM213.88-4.4Q214.28-6.4 215.03-8.95L215.03-8.95Q216.03-12.3 216.33-14.35L216.33-14.35Q215.23-15.75 214.83-17.75L214.83-17.75Q214.83-17.95 214.76-18.07 214.68-18.2 214.43-18.25L214.43-18.25Q213.68-18.55 212.73-18.55L212.73-18.55Q210.88-18.55 209.53-17.55 208.18-16.55 207.83-15.15L207.83-15.15Q207.68-14.55 206.73-10.45L206.73-10.45Q206.28-8.05 205.63-5.7L205.63-5.7Q205.63-3.85 206.88-2.83 208.13-1.8 209.53-1.8L209.53-1.8Q210.73-1.8 212.11-2.65 213.48-3.5 213.88-4.4L213.88-4.4ZM242.58-22.75Q243.18-22.15 243.78-21.75L243.78-21.75Q244.28-21.35 244.45-21.13 244.63-20.9 244.63-20.5L244.63-20.5Q244.63-20.1 244.43-19.5L244.43-19.5Q243.43-15.65 241.78-8.45L241.78-8.45Q240.68-3.55 239.78-0.05L239.78-0.05Q237.18 10.5 234.45 16.95 231.73 23.4 227.65 26.83 223.58 30.25 217.48 30.25L217.48 30.25Q213.48 30.25 210.73 28.88 207.98 27.5 206.68 25.4 205.38 23.3 205.38 21.1L205.38 21.1Q205.38 20.6 205.48 20.28 205.58 19.95 205.98 19.3L205.98 19.3Q208.93 27.35 217.58 27.35L217.58 27.35Q222.98 27.35 226.58 24.18 230.18 21 232.63 15.23 235.08 9.45 237.48 0L237.48 0 237.73-1Q237.83-1.4 237.93-1.75 238.03-2.1 238.08-2.45L238.08-2.45Q236.68-1.1 234.83-0.35 232.98 0.4 231.73 0.4L231.73 0.4Q230.43 0.4 229.2-0.45 227.98-1.3 227.23-2.58 226.48-3.85 226.48-5.05L226.48-5.05Q226.78-6.25 227.18-8.1 227.58-9.95 227.78-10.95L227.78-10.95 228.98-16.35Q229.23-17.4 230.58-18.6 231.93-19.8 233.65-20.6 235.38-21.4 236.63-21.4L236.63-21.4Q237.98-21.4 239.28-20.4 240.58-19.4 241.58-17.75L241.58-17.75Q241.88-19.15 242.13-21.05L242.13-21.05 242.38-22.7 242.58-22.75ZM239.08-6.85L240.98-15.1Q240.03-16.95 238.8-18.05 237.58-19.15 236.43-19.15L236.43-19.15Q235.63-19.15 234.48-18.63 233.33-18.1 232.38-17.23 231.43-16.35 231.18-15.3L231.18-15.3Q230.83-13.8 229.88-8.6L229.88-8.6 229.28-5.2Q229.28-4 230.15-2.95 231.03-1.9 232.18-1.9L232.18-1.9Q233.03-1.9 234.58-2.5 236.13-3.1 237.43-4.23 238.73-5.35 239.08-6.85L239.08-6.85Z" opacity="1" transform="matrix(1,0,0,1,0,0)" fill="#fff" class="undefined-text-0" data-fill-palette-color="primary" id="text-0"></path></svg></g></svg></g></svg></g></svg></g></svg></g></svg></g></svg></g><g><path d="M151.089 184.634A122.216 122.216 0 1 0 151.089 62.566L158.566 62.566A114.738 114.738 0 1 1 158.566 184.634L151.089 184.634" fill="#fff" stroke="transparent" data-fill-palette-color="tertiary"></path></g></svg></g></svg><rect width="395.52" height="247.2" fill="none" stroke="none" visibility="hidden"></rect></g></svg></g></svg>